<svg width="160" height="160" viewBox="0 0 160 160" fill="none" xmlns="http://www.w3.org/2000/svg">
<path d="M80 146.659C91.0266 146.659 100 137.686 100 126.659C100 121.186 97.7 115.939 93.6534 112.139C73.56 59.8993 99.4 5.32582 99.6666 4.77925C100.42 3.21925 99.8531 1.34582 98.3666 0.459254C96.8866 -0.407308 94.96 -0.0207457 93.9531 1.39269C92.5666 3.32582 60 49.8058 60 126.659C60 137.686 68.9734 146.659 80 146.659Z" fill="#C179AD"/>
<path d="M10 133.326C4.48 133.326 0 137.806 0 143.326C0 148.846 4.48 153.326 10 153.326C15.52 153.326 20 148.846 20 143.326C20 137.806 15.52 133.326 10 133.326Z" fill="#C179AD"/>
<path d="M36.6665 139.992C31.1465 139.992 26.6665 144.472 26.6665 149.992C26.6665 155.512 31.1465 159.992 36.6665 159.992C42.1865 159.992 46.6665 155.512 46.6665 149.992C46.6665 144.472 42.1865 139.992 36.6665 139.992Z" fill="#C179AD"/>
<path d="M123.333 133.326C117.813 133.326 113.333 137.806 113.333 143.326C113.333 148.846 117.813 153.326 123.333 153.326C128.854 153.326 133.334 148.846 133.334 143.326C133.334 137.806 128.854 133.326 123.333 133.326Z" fill="#C179AD"/>
<path d="M150 126.659C151.84 126.659 153.333 125.166 153.333 123.326C153.333 121.486 151.84 119.992 150 119.992H109.667C108.72 119.992 107.813 120.399 107.18 121.106C106.547 121.812 106.247 122.759 106.347 123.699L106.487 124.759C106.573 125.379 106.667 126.006 106.667 126.659C106.667 141.366 94.7066 153.326 80 153.326C65.2934 153.326 53.3334 141.366 53.3334 126.659C53.3334 126.026 53.4269 125.419 53.5069 124.813L53.6403 123.766C53.6669 123.506 53.6469 123.173 53.6203 122.913C53.4138 121.246 51.9938 119.993 50.3138 119.993H3.33344C1.49344 119.992 0 121.486 0 123.326C0 125.166 1.49344 126.659 3.33344 126.659H46.6669C46.6669 145.039 61.6203 159.993 80.0003 159.993C98.3803 159.993 113.334 145.039 113.334 126.659H150Z" fill="#C179AD"/>
<path d="M150 139.992C144.48 139.992 140 144.472 140 149.992C140 155.512 144.48 159.992 150 159.992C155.52 159.992 160 155.512 160 149.992C160 144.472 155.52 139.992 150 139.992Z" fill="#C179AD"/>
</svg>
