<?xml version="1.0" encoding="utf-8"?>
<!-- Generator: Adobe Illustrator 19.2.1, SVG Export Plug-In . SVG Version: 6.00 Build 0)  -->
<svg version="1.1" id="Layer_1" xmlns="http://www.w3.org/2000/svg" xmlns:xlink="http://www.w3.org/1999/xlink" x="0px" y="0px"
	 viewBox="0 0 160 160" style="enable-background:new 0 0 160 160;" xml:space="preserve">
<style type="text/css">
	.st0{fill:#D62173;}
</style>
<path class="st0" d="M80,146.7c11,0,20-9,20-20c0-5.5-2.3-10.7-6.3-14.5C73.6,59.9,99.4,5.3,99.7,4.8c0.8-1.6,0.2-3.4-1.3-4.3
	C96.9-0.4,95,0,94,1.4c-1.4,1.9-34,48.4-34,125.3C60,137.7,69,146.7,80,146.7z"/>
<path class="st0" d="M10,133.3c-5.5,0-10,4.5-10,10c0,5.5,4.5,10,10,10s10-4.5,10-10C20,137.8,15.5,133.3,10,133.3z"/>
<path class="st0" d="M36.7,140c-5.5,0-10,4.5-10,10c0,5.5,4.5,10,10,10s10-4.5,10-10C46.7,144.5,42.2,140,36.7,140z"/>
<path class="st0" d="M123.3,133.3c-5.5,0-10,4.5-10,10c0,5.5,4.5,10,10,10c5.5,0,10-4.5,10-10C133.3,137.8,128.9,133.3,123.3,133.3z
	"/>
<path class="st0" d="M150,126.7c1.8,0,3.3-1.5,3.3-3.3c0-1.8-1.5-3.3-3.3-3.3h-40.3c-0.9,0-1.9,0.4-2.5,1.1
	c-0.6,0.7-0.9,1.7-0.8,2.6l0.1,1.1c0.1,0.6,0.2,1.2,0.2,1.9c0,14.7-12,26.7-26.7,26.7s-26.7-12-26.7-26.7c0-0.6,0.1-1.2,0.2-1.8
	l0.1-1c0-0.3,0-0.6,0-0.9c-0.2-1.7-1.6-2.9-3.3-2.9h-47c-1.8,0-3.3,1.5-3.3,3.3c0,1.8,1.5,3.3,3.3,3.3h43.3
	c0,18.4,15,33.3,33.3,33.3s33.3-15,33.3-33.3H150z"/>
<path class="st0" d="M150,140c-5.5,0-10,4.5-10,10c0,5.5,4.5,10,10,10s10-4.5,10-10C160,144.5,155.5,140,150,140z"/>
</svg>
