<svg width="160" height="160" viewBox="0 0 160 160" fill="none" xmlns="http://www.w3.org/2000/svg">
<path d="M10.4837 35.0063C16.3039 48.5431 26.1294 61.9325 39.8787 67.7038C41.4481 68.3577 43.2301 68.8482 45.0612 69.2569C48.7233 63.7964 52.9249 59.3658 57.8458 55.7365C62.08 52.6303 66.5106 50.1943 71.0717 48.2814C69.7639 47.3658 68.3907 46.5321 66.9519 45.78C61.2298 42.7882 55.0339 40.1561 49.001 37.3278C54.674 38.8645 61.1808 39.4367 66.6086 41.4149C69.9927 42.6576 73.1153 44.3742 76.0254 46.4178C84.7067 43.4585 93.7802 42.0362 102.837 40.9573C95.4968 28.7612 79.8346 18.9684 68.0309 14.5379C55.704 9.91105 41.7422 9.33884 28.0257 7.91667C19.6225 7.05003 10.4836 3.91125 3.79697 0.249144C2.27655 -0.584639 0.658029 0.804998 1.18119 2.48891C4.46743 13.0009 6.135 24.9028 10.4837 35.0063Z" fill="#C179AD"/>
<path d="M155.415 33.4041C139.949 41.8073 122.211 42.8373 104.832 44.8318C96.3473 45.8127 87.9439 47.0224 79.9492 49.4421C78.2163 49.9651 76.4835 50.5538 74.7831 51.2078C69.7313 53.1369 64.8594 55.671 60.2654 59.0551C55.9494 62.2266 52.4181 65.987 49.4426 70.1232C44.7015 76.7279 41.3991 84.33 38.6852 92.2266C33.7315 106.564 31.4591 121.801 31.9005 136.957C32.0803 143.104 32.1784 149.496 33.6988 155.496C34.0422 156.82 34.3691 158.504 35.3991 159.485C36.7397 160.776 39.1429 159.452 38.6034 157.572C34.7125 144.313 37.1321 128.815 42.5108 116.145C48.6906 101.578 60.6251 92.9131 75.2081 87.6326C79.0828 86.2266 83.0393 85.0005 87.0609 83.8397C87.1426 83.8072 87.2244 83.8072 87.3061 83.8072C88.1072 83.8072 88.4505 84.9841 87.6168 85.3603C82.8756 87.502 78.1672 89.66 73.6875 91.9979C51.7476 103.442 42.1673 130.09 50.3907 130.09C51.0611 130.09 51.8457 129.91 52.7449 129.534C65.4314 124.286 80.5049 124.238 94.4503 121.655C99.3549 120.755 104.129 119.529 108.608 117.665C126.396 110.243 139.115 95.7255 146.684 78.2652C152.325 65.2353 154.515 49.8512 158.782 36.3143C159.338 34.5814 158.112 33.0938 156.608 33.0938C156.232 33.0771 155.824 33.1754 155.415 33.4041Z" fill="#C179AD"/>
</svg>
