<?xml version="1.0" encoding="utf-8"?>
<!-- Generator: Adobe Illustrator 19.2.1, SVG Export Plug-In . SVG Version: 6.00 Build 0)  -->
<svg version="1.1" id="Layer_1" xmlns="http://www.w3.org/2000/svg" xmlns:xlink="http://www.w3.org/1999/xlink" x="0px" y="0px"
	 viewBox="0 0 154 182" style="enable-background:new 0 0 154 182;" xml:space="preserve">
<style type="text/css">
	.st0{fill:#D62173;}
</style>
<path class="st0" d="M153.6,159.1l-27.8-48.2c10.9-11.8,17.4-27.5,17.4-44.7c0-18.3-7.5-34.8-19.4-46.8C111.8,7.5,95.4,0,77.1,0
	C58.7,0,42.3,7.5,30.3,19.4c-12,12-19.4,28.4-19.4,46.8c0,17.2,6.5,32.9,17.4,44.7L0.5,159.1c-0.5,0.8-0.6,1.9-0.3,3
	c0.6,1.7,2.5,2.5,4.2,1.9l22.2-8.9l3.4,23.8c0.2,0.9,0.6,1.9,1.6,2.3c1.6,0.9,3.6,0.3,4.5-1.2l28.1-48.6c4,0.8,8.4,1.2,12.6,1.2
	c4.3,0,8.5-0.5,12.6-1.2l28.1,48.6c0.9,1.6,3,2,4.5,1.2c0.9-0.5,1.4-1.4,1.6-2.3l3.4-23.8l22.2,8.9c1.7,0.6,3.6-0.2,4.2-1.9
	C154.3,160.9,154.1,159.8,153.6,159.1z M35.4,168.4l-2.8-18.5c-0.3-1.7-1.9-3-3.7-2.8c-0.3,0-0.6,0.2-0.9,0.3l-17.2,6.8l22.4-38.7
	c7,6.2,15.4,11,24.7,13.8L35.4,168.4z M77.1,125.8c-16.5,0-31.4-6.7-42.1-17.4C24.2,97.7,17.6,82.8,17.6,66.3S24.2,34.9,35,24.2
	c10.7-11,25.6-17.7,42.1-17.7c16.5,0,31.4,6.7,42.1,17.4s17.4,25.6,17.4,42.1s-6.7,31.4-17.4,42.1
	C108.4,119.1,93.5,125.8,77.1,125.8z M126.1,147.4c-0.3-0.2-0.6-0.3-0.9-0.3c-1.7-0.3-3.4,0.9-3.7,2.8l-2.8,18.5l-22.4-39
	c9.3-2.8,17.7-7.6,24.7-13.8l22.4,38.7L126.1,147.4z"/>
<path class="st0" d="M107.5,54.7c-0.8-1.1-1.7-1.9-2.8-2.3c-1.1-0.5-2.3-0.8-3.6-0.6H88.2l-4-12.7c-0.6-1.9-2-3.4-3.6-4.3
	c-1.1-0.5-2.2-0.8-3.4-0.8c-1.2,0-2.3,0.3-3.4,0.8c-1.7,0.9-3,2.3-3.6,4.3l-4,12.7H53.3c-1.2-0.2-2.5,0.2-3.6,0.6
	c-1.1,0.5-2,1.2-2.8,2.3c-1.2,1.7-1.6,3.6-1.2,5.4c0.3,1.9,1.2,3.6,3,4.8l10.9,7.8l-4.2,12.7c0,0.2,0,0.3-0.2,0.3
	c-0.3,0.9-0.3,2-0.2,3.1c0.2,1.1,0.6,2.2,1.4,3.1c1.2,1.7,3,2.6,4.8,3c1.9,0.3,3.9-0.2,5.4-1.4l10.9-7.9l10.9,7.9
	c1.7,1.2,3.6,1.6,5.4,1.4c1.9-0.3,3.6-1.2,4.8-3c0.8-0.9,1.1-2,1.4-3.1c0.2-1.1,0.2-2-0.2-3.1c0-0.2,0-0.3-0.2-0.3l-4.2-12.7
	l10.9-7.8c1.7-1.2,2.6-3,3-4.8C109.2,58.4,108.7,56.4,107.5,54.7z M102.1,59.6l-0.2,0.2L89.3,69c-1.1,0.8-1.7,2.3-1.2,3.6l4.8,14.8
	v0.2c0,0.2,0,0.3,0,0.5c0,0.2,0,0.3-0.2,0.3c-0.2,0.2-0.3,0.3-0.6,0.3c-0.2,0-0.5,0-0.6-0.2l-12.7-9.3c-0.6-0.5-1.2-0.6-2-0.6
	c-0.6,0-1.4,0.2-2,0.6L62,88.4c-0.2,0.2-0.5,0.2-0.6,0.2c-0.2,0-0.5-0.2-0.6-0.3c-0.2-0.2-0.2-0.3-0.2-0.3c0-0.2,0-0.3,0-0.5v-0.2
	l4.8-14.8c0.5-1.4,0-2.8-1.2-3.6l-12-9.2L52,59.6c-0.2-0.2-0.3-0.3-0.3-0.5s0-0.5,0.2-0.6c0,0,0-0.2,0.2-0.2
	c0.2-0.2,0.2-0.2,0.3-0.2s0.3-0.2,0.5-0.2s0.3,0,0.5,0h15.2c1.4,0,2.6-0.9,3.1-2.3l4.8-14.9c0-0.2,0.2-0.5,0.5-0.5
	c0.2,0,0.3-0.2,0.3-0.2c0.2,0,0.3,0,0.3,0.2c0.2,0.2,0.3,0.3,0.5,0.5l4.8,14.9c0.5,1.2,1.7,2.3,3.1,2.3h15.2c0.2,0,0.3,0,0.5,0
	c0.2,0,0.3,0,0.5,0.2c0.2,0,0.2,0.2,0.3,0.2c0,0,0,0.2,0.2,0.2c0.2,0.2,0.2,0.3,0.2,0.6C102.4,59.3,102.2,59.5,102.1,59.6z"/>
<path class="st0" d="M113.6,29.7c-9.3-9.3-22.2-15.1-36.5-15.1c-14.3,0-27.2,5.7-36.5,15.1S25.5,51.9,25.5,66.2
	c0,14.3,5.7,27.2,15.1,36.5c9.3,9.3,22.2,15.1,36.5,15.1c14.3,0,27.2-5.7,36.5-15.1c9.3-9.3,15.1-22.2,15.1-36.5
	C128.6,51.9,122.9,39,113.6,29.7z M109,98c-8.2,8.2-19.6,13.2-32,13.2c-12.4,0-23.8-5.1-31.8-13.2C37,89.8,32,78.6,32,66.2
	c0-12.4,5.1-23.8,13.2-31.8C53.3,26.1,64.6,21,77.1,21c12.4,0,23.8,5.1,31.8,13.2c8.2,8.2,13.2,19.4,13.2,31.8
	C122.1,78.4,117.1,89.9,109,98z"/>
</svg>
