<svg width="154" height="182" viewBox="0 0 154 182" fill="none" xmlns="http://www.w3.org/2000/svg">
<path d="M153.629 159.06L125.825 110.907C136.698 99.1017 143.222 83.4132 143.222 66.1713C143.222 47.8422 135.766 31.377 123.806 19.4165C111.845 7.45593 95.38 0 77.0509 0C58.7217 0 42.2565 7.45593 30.296 19.4165C18.3354 31.377 10.8795 47.8422 10.8795 66.1713C10.8795 83.4132 17.4035 99.1017 28.2767 110.907L0.472289 159.06C0.00629356 159.836 -0.149038 160.924 0.161626 162.011C0.782953 163.72 2.64693 164.496 4.35558 163.875L26.568 155.021L29.9853 178.787C30.1407 179.719 30.6067 180.651 31.5387 181.117C33.092 182.049 35.1113 181.428 36.0433 179.874L64.1583 131.255C68.197 132.032 72.5462 132.498 76.7402 132.498C81.0895 132.498 85.2835 132.032 89.3221 131.255L117.437 179.874C118.369 181.428 120.388 181.894 121.942 181.117C122.874 180.651 123.34 179.719 123.495 178.787L126.912 155.021L149.125 163.875C150.833 164.496 152.697 163.72 153.319 162.011C154.251 160.924 154.095 159.836 153.629 159.06ZM35.4219 168.38L32.626 149.895C32.3153 148.187 30.762 146.944 28.898 147.099C28.5873 147.099 28.2767 147.255 27.966 147.41L10.7242 154.244L33.092 115.567C40.0819 121.78 48.4698 126.595 57.7897 129.391L35.4219 168.38ZM77.0509 125.819C60.5857 125.819 45.6738 119.139 34.956 108.422C24.2381 97.7037 17.5588 82.7919 17.5588 66.3267C17.5588 49.8615 24.2381 34.9497 34.956 24.2318C45.6738 13.2032 60.5857 6.52394 77.0509 6.52394C93.516 6.52394 108.428 13.2032 119.146 23.9211C129.864 34.639 136.543 49.5508 136.543 66.016C136.543 82.4812 129.864 97.393 119.146 108.111C108.428 119.139 93.516 125.819 77.0509 125.819ZM126.136 147.41C125.825 147.255 125.514 147.099 125.204 147.099C123.495 146.789 121.786 148.031 121.476 149.895L118.68 168.38L96.312 129.391C105.632 126.595 114.02 121.78 121.01 115.567L143.378 154.244L126.136 147.41Z" fill="#C179AD"/>
<path d="M107.496 54.6768C106.719 53.5894 105.787 52.8128 104.7 52.3468C103.613 51.8808 102.37 51.5701 101.127 51.7255H88.2347L84.1961 38.9883C83.5748 37.1243 82.1768 35.571 80.6235 34.639C79.5362 34.173 78.4488 33.8623 77.2062 33.8623C75.9635 33.8623 74.8762 34.173 73.7889 34.639C72.0802 35.571 70.8376 36.9689 70.2163 38.9883L66.1776 51.7255H53.2851C52.0424 51.5701 50.7998 51.8808 49.7125 52.3468C48.6251 52.8128 47.6931 53.5894 46.9165 54.6768C45.6738 56.3854 45.3632 58.2494 45.6738 60.1134C45.9845 61.9774 46.9165 63.686 48.6251 64.9287L59.4984 72.6953L55.3044 85.4325C55.3044 85.5878 55.3044 85.7431 55.1491 85.7431C54.8384 86.6751 54.8384 87.7624 54.9937 88.8498C55.1491 89.9371 55.6151 91.0244 56.3917 91.9564C57.6344 93.6651 59.343 94.597 61.207 94.9077C63.071 95.2184 65.0903 94.7524 66.6436 93.5097L77.5169 85.5878L88.3901 93.5097C90.0987 94.7524 91.9627 95.063 93.8267 94.9077C95.6907 94.597 97.3993 93.6651 98.642 91.9564C99.4186 91.0244 99.7293 89.9371 100.04 88.8498C100.195 87.7624 100.195 86.8305 99.8846 85.7431C99.8846 85.5878 99.8846 85.4325 99.7293 85.4325L95.5353 72.6953L106.409 64.9287C108.117 63.686 109.049 61.9774 109.36 60.1134C109.205 58.4047 108.739 56.3854 107.496 54.6768ZM102.059 59.6474L101.904 59.8027L89.3221 68.9673C88.2347 69.744 87.6134 71.2973 88.0794 72.5399L92.8947 87.2964V87.4518C92.8947 87.6071 92.8947 87.7624 92.8947 87.9178C92.8947 88.0731 92.8947 88.2284 92.7394 88.2284C92.584 88.3838 92.4287 88.5391 92.118 88.5391C91.9627 88.5391 91.652 88.5391 91.4967 88.3838L78.7595 79.0639C78.1382 78.5979 77.5169 78.4425 76.7402 78.4425C76.1189 78.4425 75.3422 78.5979 74.7209 79.0639L61.9837 88.3838C61.8283 88.5391 61.5177 88.5391 61.3623 88.5391C61.207 88.5391 60.8964 88.3838 60.741 88.2284C60.5857 88.0731 60.5857 87.9178 60.5857 87.9178C60.5857 87.7624 60.5857 87.6071 60.5857 87.4518V87.2964L65.401 72.5399C65.867 71.1419 65.401 69.744 64.1583 68.9673L52.1978 59.8027L52.0424 59.6474C51.8871 59.4921 51.7318 59.3367 51.7318 59.1814C51.7318 59.0261 51.7318 58.7154 51.8871 58.5601C51.8871 58.5601 51.8871 58.4047 52.0424 58.4047C52.1978 58.2494 52.1978 58.2494 52.3531 58.2494C52.5084 58.2494 52.6638 58.0941 52.8191 58.0941C52.9744 58.0941 53.1298 58.0941 53.2851 58.0941H68.5076C69.9056 58.0941 71.1482 57.1621 71.6142 55.7641L76.4295 40.8522C76.4295 40.6969 76.5849 40.3862 76.8955 40.3862C77.0509 40.3862 77.2062 40.2309 77.2062 40.2309C77.3615 40.2309 77.5169 40.2309 77.5169 40.3862C77.6722 40.5416 77.8275 40.6969 77.9828 40.8522L82.7981 55.7641C83.2641 57.0067 84.5068 58.0941 85.9048 58.0941H101.127C101.283 58.0941 101.438 58.0941 101.593 58.0941C101.749 58.0941 101.904 58.0941 102.059 58.2494C102.215 58.2494 102.215 58.4047 102.37 58.4047C102.37 58.4047 102.37 58.5601 102.525 58.5601C102.681 58.7154 102.681 58.8707 102.681 59.1814C102.37 59.3367 102.215 59.4921 102.059 59.6474Z" fill="#C179AD"/>
<path d="M113.554 29.6684C104.234 20.3485 91.3414 14.6012 77.0508 14.6012C62.7603 14.6012 49.8678 20.3485 40.5479 29.6684C31.228 38.9883 25.4807 51.8808 25.4807 66.1713C25.4807 80.4619 31.228 93.3544 40.5479 102.674C49.8678 111.994 62.7603 117.742 77.0508 117.742C91.3414 117.742 104.234 111.994 113.554 102.674C122.874 93.3544 128.621 80.4619 128.621 66.1713C128.621 51.8808 122.874 38.9883 113.554 29.6684ZM109.049 98.0144C100.817 106.247 89.4774 111.218 77.0508 111.218C64.6243 111.218 53.2851 106.092 45.2078 98.0144C36.9752 89.7818 32.0046 78.5979 32.0046 66.1713C32.0046 53.7448 37.1306 42.4056 45.2078 34.3283C53.2851 26.0958 64.6243 20.9698 77.0508 20.9698C89.4774 20.9698 100.817 26.0958 108.894 34.173C117.126 42.4056 122.097 53.5895 122.097 66.016C122.097 78.4426 117.126 89.9371 109.049 98.0144Z" fill="#C179AD"/>
</svg>
