<?xml version="1.0" encoding="utf-8"?>
<!-- Generator: Adobe Illustrator 19.2.1, SVG Export Plug-In . SVG Version: 6.00 Build 0)  -->
<svg version="1.1" id="Layer_1" xmlns="http://www.w3.org/2000/svg" xmlns:xlink="http://www.w3.org/1999/xlink" x="0px" y="0px"
	 viewBox="0 0 160 160" style="enable-background:new 0 0 160 160;" xml:space="preserve">
<style type="text/css">
	.st0{fill:#D62173;}
</style>
<path class="st0" d="M10.5,35c5.8,13.5,15.6,26.9,29.4,32.7c1.6,0.7,3.4,1.1,5.2,1.6c3.7-5.5,7.9-9.9,12.8-13.5
	c4.2-3.1,8.7-5.5,13.2-7.5c-1.3-0.9-2.7-1.7-4.1-2.5c-5.7-3-11.9-5.6-18-8.5c5.7,1.5,12.2,2.1,17.6,4.1c3.4,1.2,6.5,3,9.4,5
	c8.7-3,17.8-4.4,26.8-5.5c-7.3-12.2-23-22-34.8-26.4C55.7,9.9,41.7,9.3,28,7.9c-8.4-0.9-17.5-4-24.2-7.7C2.3-0.6,0.7,0.8,1.2,2.5
	C4.5,13,6.1,24.9,10.5,35z"/>
<path class="st0" d="M155.4,33.4c-15.5,8.4-33.2,9.4-50.6,11.4c-8.5,1-16.9,2.2-24.9,4.6c-1.7,0.5-3.5,1.1-5.2,1.8
	c-5.1,1.9-9.9,4.5-14.5,7.8c-4.3,3.2-7.8,6.9-10.8,11.1c-4.7,6.6-8,14.2-10.8,22.1c-5,14.3-7.2,29.6-6.8,44.7
	c0.2,6.1,0.3,12.5,1.8,18.5c0.3,1.3,0.7,3,1.7,4c1.3,1.3,3.7,0,3.2-1.9c-3.9-13.3-1.5-28.8,3.9-41.4c6.2-14.6,18.1-23.2,32.7-28.5
	c3.9-1.4,7.8-2.6,11.9-3.8c0.1,0,0.2,0,0.2,0c0.8,0,1.1,1.2,0.3,1.6c-4.7,2.1-9.4,4.3-13.9,6.6c-21.9,11.4-31.5,38.1-23.3,38.1
	c0.7,0,1.5-0.2,2.4-0.6c12.7-5.2,27.8-5.3,41.7-7.9c4.9-0.9,9.7-2.1,14.2-4c17.8-7.4,30.5-21.9,38.1-39.4c5.6-13,7.8-28.4,12.1-42
	c0.6-1.7-0.7-3.2-2.2-3.2C156.2,33.1,155.8,33.2,155.4,33.4z"/>
</svg>
