<svg width="2025" height="959" viewBox="0 0 2025 959" fill="none" xmlns="http://www.w3.org/2000/svg">
<g filter="url(#filter0_d)">
<path d="M963 362.049C461.4 587.444 145.333 246.597 50 48V907H1975V592.951C1846.67 422.069 1464.6 136.654 963 362.049Z" fill="#DD185F"/>
<path d="M963 362.049C461.4 587.444 145.333 246.597 50 48V907H1975V592.951C1846.67 422.069 1464.6 136.654 963 362.049Z" stroke="#F4F4F4"/>
</g>
<g filter="url(#filter1_bi)">
<path d="M1001 445.049C499.4 670.444 183.333 329.597 88 131V906.5H1978.5V592C1850.17 421.118 1502.6 219.654 1001 445.049Z" fill="white" fill-opacity="0.62"/>
<path d="M1001 445.049C499.4 670.444 183.333 329.597 88 131V906.5H1978.5V592C1850.17 421.118 1502.6 219.654 1001 445.049Z" stroke="#F4F4F4"/>
</g>
<defs>
<filter id="filter0_d" x="0.5" y="0.783569" width="2024" height="957.716" filterUnits="userSpaceOnUse" color-interpolation-filters="sRGB">
<feFlood flood-opacity="0" result="BackgroundImageFix"/>
<feColorMatrix in="SourceAlpha" type="matrix" values="0 0 0 0 0 0 0 0 0 0 0 0 0 0 0 0 0 0 127 0"/>
<feOffset dy="2"/>
<feGaussianBlur stdDeviation="24.5"/>
<feColorMatrix type="matrix" values="0 0 0 0 0 0 0 0 0 0 0 0 0 0 0 0 0 0 0.15 0"/>
<feBlend mode="normal" in2="BackgroundImageFix" result="effect1_dropShadow"/>
<feBlend mode="normal" in="SourceGraphic" in2="effect1_dropShadow" result="shape"/>
</filter>
<filter id="filter1_bi" x="53.5" y="96.7836" width="1959.5" height="844.216" filterUnits="userSpaceOnUse" color-interpolation-filters="sRGB">
<feFlood flood-opacity="0" result="BackgroundImageFix"/>
<feGaussianBlur in="BackgroundImage" stdDeviation="17"/>
<feComposite in2="SourceAlpha" operator="in" result="effect1_backgroundBlur"/>
<feBlend mode="normal" in="SourceGraphic" in2="effect1_backgroundBlur" result="shape"/>
<feColorMatrix in="SourceAlpha" type="matrix" values="0 0 0 0 0 0 0 0 0 0 0 0 0 0 0 0 0 0 127 0" result="hardAlpha"/>
<feOffset dy="-10"/>
<feGaussianBlur stdDeviation="23"/>
<feComposite in2="hardAlpha" operator="arithmetic" k2="-1" k3="1"/>
<feColorMatrix type="matrix" values="0 0 0 0 0.820833 0 0 0 0 0.560903 0 0 0 0 0.654478 0 0 0 1 0"/>
<feBlend mode="normal" in2="shape" result="effect2_innerShadow"/>
</filter>
</defs>
</svg>
